# xmcd
#
# Track frame offsets:
#	150
#	11875
#	35302
#	50787
#
# Disc length: 900 seconds
#
# Revision: 1
# Processed by: cddbd v1.4PL0 Copyright (c) Steve Scherf et al.
# Submitted via: audiograbber 1.81.02
#
DISCID=2f038204
DTITLE=Trevor Finlay - Trevor Finlay
DYEAR=1997
DGENRE=Blues
TTITLE0=About You
TTITLE1=Things Have Got to Get Better
TTITLE2=Craving Your Attention
TTITLE3=King Bee
EXTD=
EXTT0=
EXTT1=
EXTT2=
EXTT3=
PLAYORDER=
